After super-villain Megamind (Ferrell) kills his good-guy nemesis, Metro Man (Pitt), he becomes bored since there is no one left to fight. He creates a new foe, Titan (Hill), who, instead of using his powers for good, sets out to destroy the world, positioning Megamind to save the day for the first time in his life



Will Ferrell	 ...	
Megamind (voice)
Brad Pitt	 ...	
Metro Man (voice)
Tina Fey	 ...	
Roxanne Ritchie (voice)
Jonah Hill	 ...	
Tighten (voice)
David Cross	 ...	
Minion (voice)
Justin Theroux	 ...	
Megamind's Father (voice)
Ben Stiller	 ...	
Bernard (voice)

Format                           : AVI
Format/Info                      : Audio Video Interleave
File size                        : 799 MiB
Duration                         : 1h 35mn
Overall bit rate                 : 1 170 Kbps
Writing application              : VirtualDubMod 1.5.4.1 (build 2178/release)
Writing library                  : VirtualDubMod build 2178/release

Video
ID                               : 0
Format                           : MPEG-4 Visual
Format profile                   : Advanced Simple@L5
Format settings, BVOP            : 1
Format settings, QPel            : No
Format settings, GMC             : No warppoints
Format settings, Matrix          : Custom
Codec ID                         : XVID
Codec ID/Hint                    : XviD
Duration                         : 1h 35mn
Bit rate                         : 939 Kbps
Width                            : 672 pixels
Height                           : 272 pixels
Display aspect ratio             : 2.471
Frame rate                       : 25.000 fps
Color space                      : YUV
Chroma subsampling               : 4:2:0
Bit depth                        : 8 bits
Scan type                        : Progressive
Compression mode                 : Lossy
Bits/(Pixel*Frame)               : 0.205
Stream size                      : 642 MiB (80%)
Writing library                  : XviD 1.2.1 (UTC 2008-12-04)

Audio
ID                               : 1
Format                           : AC-3
Format/Info                      : Audio Coding 3
Mode extension                   : CM (complete main)
Codec ID                         : 2000
Duration                         : 1h 35mn
Bit rate mode                    : Constant
Bit rate                         : 224 Kbps
Channel(s)                       : 2 channels
Channel positions                : Front: L R
Sampling rate                    : 48.0 KHz
Bit depth                        : 16 bits
Compression mode                 : Lossy
Stream size                      : 153 MiB (19%)
Alignment                        : Aligned on interleaves
Interleave, duration             : 96 ms (2.40 video frames)
Interleave, preload duration     : 96 ms

 
http://img820.imageshack.us/img820/3631/vlcsnap2011021012h41m33.png 
http://img59.imageshack.us/img59/7403/vlcsnap2011021012h41m47.png 
http://img6.imageshack.us/img6/1867/vlcsnap2011021012h41m51.png